<svg xmlns="http://www.w3.org/2000/svg" viewBox="0 0 128 128">
  <defs>
    <linearGradient id="grad" x1="0%" y1="0%" x2="100%" y2="100%">
      <stop offset="0%" style="stop-color:#1a73e8"/>
      <stop offset="100%" style="stop-color:#4285f4"/>
    </linearGradient>
  </defs>
  <rect width="128" height="128" rx="24" fill="url(#grad)"/>
  <g fill="white">
    <path d="M32 28h64c4.4 0 8 3.6 8 8v56c0 4.4-3.6 8-8 8H32c-4.4 0-8-3.6-8-8V36c0-4.4 3.6-8 8-8z" fill-opacity="0.2"/>
    <path d="M36 32h56c2.2 0 4 1.8 4 4v52c0 2.2-1.8 4-4 4H36c-2.2 0-4-1.8-4-4V36c0-2.2 1.8-4 4-4z" fill-opacity="0.3"/>
    <text x="64" y="78" font-family="Arial, sans-serif" font-size="36" font-weight="bold" text-anchor="middle" fill="white">ADS</text>
    <circle cx="98" cy="34" r="8" fill="#ffd700"/>
  </g>
</svg>
